# Blender v3.2.2 OBJ File: ''
# www.blender.org
mtllib bit_2.mtl
o bit_idle_2
v -15.835900 25.623100 0.000000
v 15.835900 25.623100 0.000000
v 0.000000 30.000000 -11.459000
v 0.000000 15.835900 25.623100
v 18.541000 18.541000 18.541000
v -18.541000 18.541000 18.541000
v 25.623100 0.000000 -15.835900
v 18.541000 18.541000 -18.541000
v 25.623100 0.000000 15.835900
v 30.000000 -11.459000 0.000000
v 0.000000 15.835900 -25.623100
v 0.000000 30.000000 11.459000
v -18.541000 18.541000 -18.541000
v 30.000000 11.459000 0.000000
v 11.459000 0.000000 30.000000
v 11.459000 0.000000 -30.000000
v 0.000000 -15.835900 25.623100
v 15.835900 -25.623100 0.000000
v 18.541000 -18.541000 18.541000
v -15.835900 -25.623100 0.000000
v 0.000000 -30.000000 -11.459000
v -18.541000 -18.541000 18.541000
v -25.623100 0.000000 -15.835900
v -18.541000 -18.541000 -18.541000
v -25.623100 0.000000 15.835900
v -30.000000 11.459000 0.000000
v 0.000000 -30.000000 11.459000
v 0.000000 -15.835900 -25.623100
v 18.541000 -18.541000 -18.541000
v -30.000000 -11.459000 0.000000
v -11.459000 0.000000 30.000000
v -11.459000 0.000000 -30.000000
vn 0.0000 0.9342 0.3568
vn 0.9342 0.3568 -0.0000
vn 0.0000 0.9342 -0.3568
vn 0.5774 0.5774 0.5774
vn 0.5774 0.5774 -0.5774
vn 0.0000 -0.9342 0.3568
vn -0.9342 -0.3568 -0.0000
vn 0.0000 -0.9342 -0.3568
vn -0.5774 -0.5774 0.5774
vn -0.5774 -0.5774 -0.5774
vn 0.5774 -0.5774 -0.5774
vn 0.5774 -0.5774 0.5774
vn 0.9342 -0.3568 0.0000
vn -0.5774 0.5774 -0.5774
vn -0.5774 0.5774 0.5774
vn -0.9342 0.3568 0.0000
vn -0.3568 0.0000 -0.9342
vn 0.3568 0.0000 -0.9342
vn 0.3568 0.0000 0.9342
vn -0.3568 0.0000 0.9342
usemtl None
s off
f 1//1 2//1 3//1
f 2//1 4//1 5//1
f 2//1 1//1 4//1
f 4//1 1//1 6//1
f 2//2 7//2 8//2
f 9//2 7//2 2//2
f 7//2 9//2 10//2
f 9//2 2//2 5//2
f 11//3 2//3 8//3
f 1//3 2//3 11//3
f 2//3 1//3 12//3
f 1//3 11//3 13//3
f 12//4 14//4 2//4
f 4//4 14//4 12//4
f 14//4 4//4 9//4
f 9//4 4//4 15//4
f 11//5 7//5 16//5
f 14//5 11//5 3//5
f 14//5 3//5 2//5
f 11//5 14//5 7//5
f 17//6 18//6 19//6
f 20//6 18//6 17//6
f 18//6 20//6 21//6
f 20//6 17//6 22//6
f 20//7 23//7 24//7
f 25//7 23//7 20//7
f 23//7 25//7 26//7
f 25//7 20//7 22//7
f 20//8 18//8 27//8
f 18//8 28//8 29//8
f 18//8 20//8 28//8
f 28//8 20//8 24//8
f 27//9 30//9 20//9
f 17//9 30//9 27//9
f 30//9 17//9 25//9
f 25//9 17//9 31//9
f 21//10 32//10 28//10
f 23//10 21//10 20//10
f 21//10 23//10 32//10
f 23//10 20//10 30//10
f 7//11 28//11 16//11
f 10//11 28//11 7//11
f 28//11 10//11 21//11
f 21//11 10//11 18//11
f 10//12 27//12 18//12
f 17//12 10//12 9//12
f 10//12 17//12 27//12
f 17//12 9//12 15//12
f 9//13 7//13 14//13
f 7//13 18//13 29//13
f 7//13 9//13 18//13
f 18//13 9//13 19//13
f 23//14 11//14 32//14
f 26//14 11//14 23//14
f 11//14 26//14 3//14
f 3//14 26//14 1//14
f 12//15 31//15 4//15
f 25//15 12//15 1//15
f 12//15 25//15 31//15
f 25//15 1//15 26//15
f 25//16 23//16 30//16
f 23//16 1//16 13//16
f 23//16 25//16 1//16
f 1//16 25//16 6//16
f 28//17 11//17 16//17
f 11//17 23//17 13//17
f 11//17 28//17 23//17
f 23//17 28//17 24//17
f 7//18 11//18 8//18
f 28//18 11//18 7//18
f 11//18 28//18 32//18
f 28//18 7//18 29//18
f 17//19 4//19 31//19
f 4//19 9//19 5//19
f 4//19 17//19 9//19
f 9//19 17//19 19//19
f 25//20 4//20 6//20
f 17//20 4//20 25//20
f 4//20 17//20 15//20
f 17//20 25//20 22//20
