# Blender v3.2.2 OBJ File: ''
# www.blender.org
mtllib bit_1.mtl
o bit_idle_1
v 18.541000 18.541000 -11.459000
v 30.000000 18.541000 0.000000
v 24.270500 9.270510 -15.000000
v 15.000000 24.270500 -9.270510
v 18.541000 11.459000 -18.541000
v 18.541000 0.000000 -30.000000
v 9.270510 15.000000 -24.270500
v 0.000000 30.000000 -18.541000
v 11.459000 18.541000 -18.541000
v -18.541000 -11.459000 -18.541000
v -18.541000 0.000000 -30.000000
v -9.270510 -15.000000 -24.270500
v -24.270500 -9.270510 -15.000000
v 0.000000 -30.000000 -18.541000
v -11.459000 -18.541000 -18.541000
v -15.000000 -24.270500 -9.270510
v -18.541000 -18.541000 -11.459000
v -30.000000 -18.541000 0.000000
v 18.541000 -11.459000 -18.541000
v 9.270510 -15.000000 -24.270500
v 24.270500 -9.270510 -15.000000
v 11.459000 -18.541000 -18.541000
v 15.000000 -24.270500 -9.270510
v 18.541000 -18.541000 -11.459000
v 30.000000 -18.541000 0.000000
v 15.000000 24.270500 9.270510
v 0.000000 30.000000 0.000000
v 0.000000 30.000000 18.541000
v -30.000000 0.000000 0.000000
v -24.270500 -9.270510 15.000000
v -24.270500 9.270510 15.000000
v -18.541000 0.000000 30.000000
v -30.000000 18.541000 0.000000
v 30.000000 0.000000 0.000000
v -11.459000 18.541000 -18.541000
v -9.270510 15.000000 -24.270500
v -15.000000 24.270500 -9.270510
v -18.541000 11.459000 -18.541000
v -24.270500 9.270510 -15.000000
v -18.541000 18.541000 -11.459000
v 0.000000 0.000000 -30.000000
v 18.541000 18.541000 11.459000
v 24.270500 9.270510 15.000000
v 11.459000 18.541000 18.541000
v 9.270510 15.000000 24.270500
v 18.541000 11.459000 18.541000
v 18.541000 0.000000 30.000000
v -9.270510 15.000000 24.270500
v 0.000000 0.000000 30.000000
v -11.459000 18.541000 18.541000
v -15.000000 24.270500 9.270510
v -18.541000 11.459000 18.541000
v -18.541000 18.541000 11.459000
v -18.541000 -18.541000 11.459000
v -15.000000 -24.270500 9.270510
v -18.541000 -11.459000 18.541000
v -9.270510 -15.000000 24.270500
v 0.000000 -30.000000 18.541000
v -11.459000 -18.541000 18.541000
v 24.270500 -9.270510 15.000000
v 0.000000 -30.000000 0.000000
v 15.000000 -24.270500 9.270510
v 18.541000 -18.541000 11.459000
v 18.541000 -11.459000 18.541000
v 9.270510 -15.000000 24.270500
v 11.459000 -18.541000 18.541000
v 11.459000 30.000000 0.000000
v 18.541000 18.541000 18.541000
v 18.541000 18.541000 -18.541000
v -18.541000 18.541000 -18.541000
v -11.459000 30.000000 0.000000
v -18.541000 18.541000 18.541000
v 0.000000 11.459000 30.000000
v 30.000000 0.000000 11.459000
v 30.000000 0.000000 -11.459000
v 0.000000 -11.459000 30.000000
v -18.541000 -18.541000 18.541000
v 18.541000 -18.541000 18.541000
v -18.541000 -18.541000 -18.541000
v -11.459000 -30.000000 0.000000
v -30.000000 0.000000 11.459000
v -30.000000 0.000000 -11.459000
v 18.541000 -18.541000 -18.541000
v 0.000000 11.459000 -30.000000
v 0.000000 -11.459000 -30.000000
v 11.459000 -30.000000 0.000000
vn 0.5774 0.5774 -0.5774
vn 0.5774 0.5773 -0.5774
vn 0.5773 0.5774 -0.5774
vn 0.5774 0.5774 -0.5773
vn -0.5774 -0.5774 -0.5774
vn -0.5773 -0.5774 -0.5774
vn -0.5774 -0.5774 -0.5773
vn -0.5774 -0.5773 -0.5774
vn 0.5774 -0.5774 -0.5774
vn 0.5773 -0.5774 -0.5774
vn 0.5774 -0.5774 -0.5773
vn 0.5774 -0.5773 -0.5774
vn 0.3568 0.9342 0.0000
vn -0.9342 0.0000 0.3568
vn 0.9342 0.0000 -0.3568
vn -0.5774 0.5774 -0.5773
vn -0.5774 0.5774 -0.5774
vn -0.5773 0.5774 -0.5774
vn -0.5774 0.5773 -0.5774
vn 0.0000 0.3568 -0.9342
vn 0.5774 0.5773 0.5774
vn 0.5774 0.5774 0.5774
vn 0.5774 0.5774 0.5773
vn 0.5773 0.5774 0.5774
vn 0.0000 0.3568 0.9342
vn -0.9342 0.0000 -0.3568
vn 0.0000 -0.3568 -0.9342
vn -0.5774 0.5774 0.5774
vn -0.5774 0.5774 0.5773
vn -0.5773 0.5774 0.5774
vn -0.5774 0.5773 0.5774
vn -0.3568 0.9342 0.0000
vn -0.5774 -0.5773 0.5774
vn -0.5774 -0.5774 0.5774
vn -0.5773 -0.5774 0.5774
vn -0.5774 -0.5774 0.5773
vn 0.9342 0.0000 0.3568
vn 0.3568 -0.9342 0.0000
vn -0.3568 -0.9342 0.0000
vn 0.5774 -0.5773 0.5774
vn 0.5774 -0.5774 0.5774
vn 0.5773 -0.5774 0.5774
vn 0.5774 -0.5774 0.5773
vn 0.0000 -0.3568 0.9342
vn 0.8507 0.5257 0.0000
vn 0.0000 0.8507 -0.5257
vn 0.0000 0.8506 -0.5257
vn 0.0000 0.8507 0.5257
vn 0.8506 0.5257 0.0000
vn -0.5257 0.0000 0.8506
vn -0.5257 0.0000 0.8507
vn 0.0000 -0.8507 0.5257
vn -0.8507 -0.5257 0.0000
vn -0.8506 0.5257 0.0000
vn -0.8507 0.5257 0.0000
vn 0.5257 0.0000 0.8506
vn 0.5257 0.0000 0.8507
vn 0.8507 -0.5257 0.0000
vn 0.8506 -0.5257 0.0000
vn 0.5257 0.0000 -0.8507
vn 0.0000 -0.8507 -0.5257
vn -0.5257 0.0000 -0.8507
vn -0.8506 -0.5257 0.0000
vn 0.0000 0.8506 0.5257
vn -0.5257 0.0000 -0.8506
vn 0.5257 0.0000 -0.8506
vn 0.0000 -0.8506 -0.5257
vn 0.0000 -0.8506 0.5257
usemtl None
s off
f 1//1 2//1 3//1
f 2//2 1//2 4//2
f 5//1 6//1 7//1
f 6//3 5//3 3//3
f 8//4 9//4 7//4
f 9//1 8//1 4//1
f 10//5 11//5 12//5
f 11//6 10//6 13//6
f 14//7 15//7 12//7
f 15//5 14//5 16//5
f 17//5 18//5 13//5
f 18//8 17//8 16//8
f 6//9 19//9 20//9
f 19//10 6//10 21//10
f 22//11 14//11 20//11
f 14//9 22//9 23//9
f 24//12 25//12 23//12
f 25//9 24//9 21//9
f 4//13 26//13 2//13
f 8//13 27//13 4//13
f 27//13 28//13 26//13
f 29//14 18//14 30//14
f 31//14 30//14 32//14
f 33//14 29//14 31//14
f 34//15 3//15 2//15
f 21//15 6//15 3//15
f 25//15 21//15 34//15
f 35//16 8//16 36//16
f 8//17 35//17 37//17
f 11//17 38//17 36//17
f 38//18 11//18 39//18
f 40//19 33//19 37//19
f 33//17 40//17 39//17
f 6//20 41//20 7//20
f 7//20 36//20 8//20
f 41//20 11//20 36//20
f 42//21 2//21 26//21
f 2//22 42//22 43//22
f 28//22 44//22 26//22
f 44//23 28//23 45//23
f 46//24 47//24 43//24
f 47//22 46//22 45//22
f 28//25 48//25 45//25
f 48//25 32//25 49//25
f 45//25 49//25 47//25
f 11//26 13//26 39//26
f 13//26 18//26 29//26
f 39//26 29//26 33//26
f 20//27 41//27 6//27
f 12//27 11//27 41//27
f 14//27 12//27 20//27
f 50//28 28//28 51//28
f 28//29 50//29 48//29
f 52//28 32//28 48//28
f 32//30 52//30 31//30
f 33//31 53//31 51//31
f 53//28 33//28 31//28
f 8//32 37//32 27//32
f 27//32 51//32 28//32
f 37//32 33//32 51//32
f 54//33 18//33 55//33
f 18//34 54//34 30//34
f 56//35 32//35 30//35
f 32//34 56//34 57//34
f 58//34 59//34 55//34
f 59//36 58//36 57//36
f 2//37 43//37 34//37
f 34//37 60//37 25//37
f 43//37 47//37 60//37
f 23//38 61//38 14//38
f 25//38 62//38 23//38
f 62//38 58//38 61//38
f 61//39 16//39 14//39
f 55//39 18//39 16//39
f 58//39 55//39 61//39
f 25//40 63//40 62//40
f 63//41 25//41 60//41
f 64//41 47//41 65//41
f 47//42 64//42 60//42
f 66//41 58//41 62//41
f 58//43 66//43 65//43
f 49//44 32//44 57//44
f 47//44 49//44 65//44
f 65//44 57//44 58//44
f 4//45 67//45 26//45
f 42//45 26//45 68//45
f 69//45 4//45 1//45
f 4//46 27//46 67//46
f 69//47 9//47 4//47
f 35//47 70//47 37//47
f 27//46 37//46 71//46
f 44//48 45//48 68//48
f 50//48 72//48 48//48
f 45//48 48//48 73//48
f 42//49 68//49 43//49
f 69//49 1//49 3//49
f 34//45 43//45 74//45
f 75//45 3//45 34//45
f 72//50 52//50 48//50
f 73//51 48//51 49//51
f 49//51 57//51 76//51
f 56//50 77//50 57//50
f 76//52 57//52 65//52
f 78//52 65//52 66//52
f 57//52 77//52 59//52
f 55//53 77//53 54//53
f 16//53 17//53 79//53
f 80//53 55//53 16//53
f 70//54 39//54 40//54
f 53//54 31//54 72//54
f 29//55 81//55 31//55
f 82//55 29//55 39//55
f 72//51 31//51 52//51
f 56//51 30//51 77//51
f 31//51 81//51 30//51
f 68//56 45//56 46//56
f 73//57 49//57 45//57
f 49//57 76//57 65//57
f 64//56 65//56 78//56
f 74//58 60//58 34//58
f 60//59 78//59 63//59
f 21//59 24//59 83//59
f 34//58 21//58 75//58
f 68//57 46//57 43//57
f 43//57 60//57 74//57
f 64//57 78//57 60//57
f 3//60 5//60 69//60
f 21//60 83//60 19//60
f 75//60 21//60 3//60
f 69//46 7//46 9//46
f 36//46 70//46 35//46
f 84//46 36//46 7//46
f 22//61 20//61 83//61
f 15//61 79//61 12//61
f 20//61 12//61 85//61
f 38//62 39//62 70//62
f 79//62 13//62 10//62
f 13//62 82//62 39//62
f 77//63 30//63 54//63
f 17//63 13//63 79//63
f 30//53 81//53 29//53
f 13//53 29//53 82//53
f 70//55 40//55 37//55
f 53//55 72//55 51//55
f 37//55 51//55 71//55
f 67//48 27//48 26//48
f 26//64 44//64 68//64
f 51//64 72//64 50//64
f 71//48 51//48 27//48
f 78//58 62//58 63//58
f 24//58 23//58 83//58
f 62//58 86//58 23//58
f 36//65 38//65 70//65
f 41//62 36//62 84//62
f 12//65 79//65 10//65
f 85//62 12//62 41//62
f 5//66 7//66 69//66
f 83//66 20//66 19//66
f 7//60 41//60 84//60
f 20//60 85//60 41//60
f 23//67 22//67 83//67
f 16//67 79//67 15//67
f 80//61 16//61 61//61
f 86//61 61//61 23//61
f 78//68 66//68 62//68
f 59//68 77//68 55//68
f 61//52 55//52 80//52
f 62//52 61//52 86//52
